<mxfile host="65bd71144e">
    <diagram id="D3wrfoZ5t9sQrdVeHo7J" name="Pipelines">
        <mxGraphModel dx="1088" dy="608" grid="1" gridSize="10" guides="1" tooltips="1" connect="1" arrows="1" fold="1" page="1" pageScale="1" pageWidth="850" pageHeight="1100" math="0" shadow="0">
            <root>
                <mxCell id="0"/>
                <mxCell id="1" parent="0"/>
                <mxCell id="53" value="" style="rounded=1;whiteSpace=wrap;html=1;fontSize=8;fontColor=none;fillColor=#FFFFFF;noLabel=1;strokeColor=none;arcSize=2;" parent="1" vertex="1">
                    <mxGeometry x="20" y="160" width="570" height="540" as="geometry"/>
                </mxCell>
                <mxCell id="49" value="Pipeline 1" style="text;html=1;strokeColor=none;fillColor=none;align=center;verticalAlign=middle;whiteSpace=wrap;rounded=0;fontSize=10;fontColor=#000000;fontStyle=1" parent="1" vertex="1">
                    <mxGeometry x="40" y="205" width="60" height="30" as="geometry"/>
                </mxCell>
                <mxCell id="50" value="Pipeline 2" style="text;html=1;strokeColor=none;fillColor=none;align=center;verticalAlign=middle;whiteSpace=wrap;rounded=0;fontSize=10;fontColor=#000000;fontStyle=1" parent="1" vertex="1">
                    <mxGeometry x="40" y="295" width="60" height="30" as="geometry"/>
                </mxCell>
                <mxCell id="51" value="Pipeline 3" style="text;html=1;strokeColor=none;fillColor=none;align=center;verticalAlign=middle;whiteSpace=wrap;rounded=0;fontSize=10;fontColor=#000000;fontStyle=1" parent="1" vertex="1">
                    <mxGeometry x="40" y="425" width="60" height="30" as="geometry"/>
                </mxCell>
                <mxCell id="52" value="Pipeline 4" style="text;html=1;strokeColor=none;fillColor=none;align=center;verticalAlign=middle;whiteSpace=wrap;rounded=0;fontSize=10;fontColor=#000000;fontStyle=1" parent="1" vertex="1">
                    <mxGeometry x="40" y="572.5" width="60" height="30" as="geometry"/>
                </mxCell>
                <mxCell id="54" value="4 different pipelines" style="text;html=1;strokeColor=none;fillColor=none;align=center;verticalAlign=middle;whiteSpace=wrap;rounded=0;fontSize=12;fontColor=none;fontStyle=1" parent="1" vertex="1">
                    <mxGeometry x="240" y="650" width="130" height="30" as="geometry"/>
                </mxCell>
                <mxCell id="63" value="" style="group" parent="1" vertex="1" connectable="0">
                    <mxGeometry x="127.5" y="540" width="345" height="95" as="geometry"/>
                </mxCell>
                <mxCell id="36" value="1" style="ellipse;whiteSpace=wrap;html=1;aspect=fixed;fillColor=#dae8fc;strokeColor=#6c8ebf;" parent="63" vertex="1">
                    <mxGeometry x="85" y="30" width="30" height="30" as="geometry"/>
                </mxCell>
                <mxCell id="38" value="2" style="ellipse;whiteSpace=wrap;html=1;aspect=fixed;fillColor=#d5e8d4;strokeColor=#82b366;" parent="63" vertex="1">
                    <mxGeometry x="155" width="30" height="30" as="geometry"/>
                </mxCell>
                <mxCell id="47" style="edgeStyle=none;html=1;" parent="63" source="36" target="38" edge="1">
                    <mxGeometry relative="1" as="geometry"/>
                </mxCell>
                <mxCell id="40" value="3" style="ellipse;whiteSpace=wrap;html=1;aspect=fixed;fillColor=#ffe6cc;strokeColor=#d79b00;" parent="63" vertex="1">
                    <mxGeometry x="155" y="65" width="30" height="30" as="geometry"/>
                </mxCell>
                <mxCell id="48" style="edgeStyle=none;html=1;" parent="63" source="36" target="40" edge="1">
                    <mxGeometry relative="1" as="geometry"/>
                </mxCell>
                <mxCell id="42" value="4" style="ellipse;whiteSpace=wrap;html=1;aspect=fixed;fillColor=#f8cecc;strokeColor=#b85450;" parent="63" vertex="1">
                    <mxGeometry x="225" y="30" width="30" height="30" as="geometry"/>
                </mxCell>
                <mxCell id="46" style="edgeStyle=none;html=1;" parent="63" source="38" target="42" edge="1">
                    <mxGeometry relative="1" as="geometry"/>
                </mxCell>
                <mxCell id="39" style="edgeStyle=none;html=1;" parent="63" source="40" target="42" edge="1">
                    <mxGeometry relative="1" as="geometry"/>
                </mxCell>
                <mxCell id="43" style="edgeStyle=none;html=1;" parent="63" source="44" target="36" edge="1">
                    <mxGeometry relative="1" as="geometry"/>
                </mxCell>
                <mxCell id="44" value="Data Source" style="ellipse;whiteSpace=wrap;html=1;aspect=fixed;fontSize=8;fillColor=#f5f5f5;fontColor=#333333;strokeColor=#666666;" parent="63" vertex="1">
                    <mxGeometry y="25" width="40" height="40" as="geometry"/>
                </mxCell>
                <mxCell id="45" value="Sink" style="rounded=1;whiteSpace=wrap;html=1;fillColor=#f5f5f5;fontColor=#333333;strokeColor=#666666;" parent="63" vertex="1">
                    <mxGeometry x="295" y="25" width="50" height="40" as="geometry"/>
                </mxCell>
                <mxCell id="41" style="edgeStyle=none;html=1;" parent="63" source="42" target="45" edge="1">
                    <mxGeometry relative="1" as="geometry"/>
                </mxCell>
                <mxCell id="65" value="" style="group" parent="1" vertex="1" connectable="0">
                    <mxGeometry x="130" y="200" width="275" height="40" as="geometry"/>
                </mxCell>
                <mxCell id="2" value="1" style="ellipse;whiteSpace=wrap;html=1;aspect=fixed;fillColor=#dae8fc;strokeColor=#6c8ebf;" parent="65" vertex="1">
                    <mxGeometry x="85" y="5" width="30" height="30" as="geometry"/>
                </mxCell>
                <mxCell id="3" value="2" style="ellipse;whiteSpace=wrap;html=1;aspect=fixed;fillColor=#d5e8d4;strokeColor=#82b366;" parent="65" vertex="1">
                    <mxGeometry x="155" y="5" width="30" height="30" as="geometry"/>
                </mxCell>
                <mxCell id="10" style="edgeStyle=none;html=1;" parent="65" source="2" target="3" edge="1">
                    <mxGeometry relative="1" as="geometry"/>
                </mxCell>
                <mxCell id="12" style="edgeStyle=none;html=1;" parent="65" source="11" target="2" edge="1">
                    <mxGeometry relative="1" as="geometry"/>
                </mxCell>
                <mxCell id="11" value="Data Source" style="ellipse;whiteSpace=wrap;html=1;aspect=fixed;fontSize=8;fillColor=#f5f5f5;fontColor=#333333;strokeColor=#666666;" parent="65" vertex="1">
                    <mxGeometry width="40" height="40" as="geometry"/>
                </mxCell>
                <mxCell id="29" value="Sink" style="rounded=1;whiteSpace=wrap;html=1;fillColor=#f5f5f5;fontColor=#333333;strokeColor=#666666;" parent="65" vertex="1">
                    <mxGeometry x="225" width="50" height="40" as="geometry"/>
                </mxCell>
                <mxCell id="18" style="edgeStyle=none;html=1;" parent="65" source="3" target="29" edge="1">
                    <mxGeometry relative="1" as="geometry">
                        <mxPoint x="225" y="20" as="targetPoint"/>
                    </mxGeometry>
                </mxCell>
                <mxCell id="68" value="" style="group" parent="1" vertex="1" connectable="0">
                    <mxGeometry x="127.5" y="370" width="342.5" height="140" as="geometry"/>
                </mxCell>
                <mxCell id="19" value="2" style="ellipse;whiteSpace=wrap;html=1;aspect=fixed;fillColor=#d5e8d4;strokeColor=#82b366;container=0;" parent="68" vertex="1">
                    <mxGeometry x="152.5" width="30" height="30" as="geometry"/>
                </mxCell>
                <mxCell id="21" style="edgeStyle=none;html=1;" parent="68" source="9" target="19" edge="1">
                    <mxGeometry relative="1" as="geometry"/>
                </mxCell>
                <mxCell id="23" value="4" style="ellipse;whiteSpace=wrap;html=1;aspect=fixed;fillColor=#f8cecc;strokeColor=#b85450;container=0;" parent="68" vertex="1">
                    <mxGeometry x="152.5" y="110" width="30" height="30" as="geometry"/>
                </mxCell>
                <mxCell id="33" style="edgeStyle=none;html=1;" parent="68" source="23" target="32" edge="1">
                    <mxGeometry relative="1" as="geometry"/>
                </mxCell>
                <mxCell id="56" style="edgeStyle=none;html=1;" parent="68" source="9" target="23" edge="1">
                    <mxGeometry relative="1" as="geometry"/>
                </mxCell>
                <mxCell id="9" value="1" style="ellipse;whiteSpace=wrap;html=1;aspect=fixed;fillColor=#dae8fc;strokeColor=#6c8ebf;container=0;" parent="68" vertex="1">
                    <mxGeometry x="85" y="55" width="30" height="30" as="geometry"/>
                </mxCell>
                <mxCell id="20" value="3" style="ellipse;whiteSpace=wrap;html=1;aspect=fixed;fillColor=#ffe6cc;strokeColor=#d79b00;container=0;" parent="68" vertex="1">
                    <mxGeometry x="152.5" y="55" width="30" height="30" as="geometry"/>
                </mxCell>
                <mxCell id="57" style="edgeStyle=none;html=1;" parent="68" source="9" target="20" edge="1">
                    <mxGeometry relative="1" as="geometry"/>
                </mxCell>
                <mxCell id="27" style="edgeStyle=none;html=1;" parent="68" source="25" target="9" edge="1">
                    <mxGeometry relative="1" as="geometry"/>
                </mxCell>
                <mxCell id="25" value="Data Source" style="ellipse;whiteSpace=wrap;html=1;aspect=fixed;fontSize=8;fillColor=#f5f5f5;fontColor=#333333;strokeColor=#666666;container=0;" parent="68" vertex="1">
                    <mxGeometry y="50" width="40" height="40" as="geometry"/>
                </mxCell>
                <mxCell id="32" value="Sink" style="rounded=1;whiteSpace=wrap;html=1;fillColor=#f5f5f5;fontColor=#333333;strokeColor=#666666;container=0;" parent="68" vertex="1">
                    <mxGeometry x="292.5" y="50" width="50" height="40" as="geometry"/>
                </mxCell>
                <mxCell id="58" style="edgeStyle=none;html=1;" parent="68" source="19" target="32" edge="1">
                    <mxGeometry relative="1" as="geometry"/>
                </mxCell>
                <mxCell id="59" style="edgeStyle=none;html=1;" parent="68" source="20" target="32" edge="1">
                    <mxGeometry relative="1" as="geometry"/>
                </mxCell>
                <mxCell id="69" value="" style="group" parent="1" vertex="1" connectable="0">
                    <mxGeometry x="130" y="290" width="420" height="40" as="geometry"/>
                </mxCell>
                <mxCell id="30" value="Sink" style="rounded=1;whiteSpace=wrap;html=1;fillColor=#f5f5f5;fontColor=#333333;strokeColor=#666666;" parent="69" vertex="1">
                    <mxGeometry x="370" width="50" height="40" as="geometry"/>
                </mxCell>
                <mxCell id="67" style="edgeStyle=none;html=1;" parent="69" source="66" target="30" edge="1">
                    <mxGeometry relative="1" as="geometry"/>
                </mxCell>
                <mxCell id="4" value="1" style="ellipse;whiteSpace=wrap;html=1;aspect=fixed;fillColor=#dae8fc;strokeColor=#6c8ebf;" parent="69" vertex="1">
                    <mxGeometry x="85" y="5" width="30" height="30" as="geometry"/>
                </mxCell>
                <mxCell id="5" value="2" style="ellipse;whiteSpace=wrap;html=1;aspect=fixed;fillColor=#d5e8d4;strokeColor=#82b366;" parent="69" vertex="1">
                    <mxGeometry x="155" y="5" width="30" height="30" as="geometry"/>
                </mxCell>
                <mxCell id="15" style="edgeStyle=none;html=1;" parent="69" source="4" target="5" edge="1">
                    <mxGeometry relative="1" as="geometry"/>
                </mxCell>
                <mxCell id="8" value="3" style="ellipse;whiteSpace=wrap;html=1;aspect=fixed;fillColor=#ffe6cc;strokeColor=#d79b00;" parent="69" vertex="1">
                    <mxGeometry x="225" y="5" width="30" height="30" as="geometry"/>
                </mxCell>
                <mxCell id="16" style="edgeStyle=none;html=1;" parent="69" source="5" target="8" edge="1">
                    <mxGeometry relative="1" as="geometry"/>
                </mxCell>
                <mxCell id="14" style="edgeStyle=none;html=1;" parent="69" source="13" target="4" edge="1">
                    <mxGeometry relative="1" as="geometry"/>
                </mxCell>
                <mxCell id="13" value="Data Source" style="ellipse;whiteSpace=wrap;html=1;aspect=fixed;fontSize=8;fillColor=#f5f5f5;fontColor=#333333;strokeColor=#666666;" parent="69" vertex="1">
                    <mxGeometry width="40" height="40" as="geometry"/>
                </mxCell>
                <mxCell id="66" value="4" style="ellipse;whiteSpace=wrap;html=1;aspect=fixed;fillColor=#f8cecc;strokeColor=#b85450;container=0;" parent="69" vertex="1">
                    <mxGeometry x="295" y="5" width="30" height="30" as="geometry"/>
                </mxCell>
                <mxCell id="31" style="edgeStyle=none;html=1;" parent="69" source="8" target="66" edge="1">
                    <mxGeometry relative="1" as="geometry"/>
                </mxCell>
            </root>
        </mxGraphModel>
    </diagram>
    <diagram id="2WjZwwupQjMzgDtRrqf1" name="Pipeline 2">
        <mxGraphModel dx="640" dy="358" grid="1" gridSize="10" guides="1" tooltips="1" connect="1" arrows="1" fold="1" page="1" pageScale="1" pageWidth="1100" pageHeight="850" math="0" shadow="0">
            <root>
                <mxCell id="0"/>
                <mxCell id="1" parent="0"/>
                <mxCell id="YL7v0kiHTcvJsBffCE6M-1" value="" style="group" vertex="1" connectable="0" parent="1">
                    <mxGeometry x="130" y="290" width="420" height="40" as="geometry"/>
                </mxCell>
                <mxCell id="YL7v0kiHTcvJsBffCE6M-2" value="Sink" style="rounded=1;whiteSpace=wrap;html=1;fillColor=#f5f5f5;fontColor=#333333;strokeColor=#666666;" vertex="1" parent="YL7v0kiHTcvJsBffCE6M-1">
                    <mxGeometry x="370" width="50" height="40" as="geometry"/>
                </mxCell>
                <mxCell id="YL7v0kiHTcvJsBffCE6M-3" style="edgeStyle=none;html=1;" edge="1" parent="YL7v0kiHTcvJsBffCE6M-1" source="YL7v0kiHTcvJsBffCE6M-11" target="YL7v0kiHTcvJsBffCE6M-2">
                    <mxGeometry relative="1" as="geometry"/>
                </mxCell>
                <mxCell id="YL7v0kiHTcvJsBffCE6M-4" value="1" style="ellipse;whiteSpace=wrap;html=1;aspect=fixed;fillColor=#dae8fc;strokeColor=#6c8ebf;" vertex="1" parent="YL7v0kiHTcvJsBffCE6M-1">
                    <mxGeometry x="85" y="5" width="30" height="30" as="geometry"/>
                </mxCell>
                <mxCell id="YL7v0kiHTcvJsBffCE6M-5" value="2" style="ellipse;whiteSpace=wrap;html=1;aspect=fixed;fillColor=#d5e8d4;strokeColor=#82b366;" vertex="1" parent="YL7v0kiHTcvJsBffCE6M-1">
                    <mxGeometry x="155" y="5" width="30" height="30" as="geometry"/>
                </mxCell>
                <mxCell id="YL7v0kiHTcvJsBffCE6M-6" style="edgeStyle=none;html=1;" edge="1" parent="YL7v0kiHTcvJsBffCE6M-1" source="YL7v0kiHTcvJsBffCE6M-4" target="YL7v0kiHTcvJsBffCE6M-5">
                    <mxGeometry relative="1" as="geometry"/>
                </mxCell>
                <mxCell id="YL7v0kiHTcvJsBffCE6M-7" value="3" style="ellipse;whiteSpace=wrap;html=1;aspect=fixed;fillColor=#ffe6cc;strokeColor=#d79b00;" vertex="1" parent="YL7v0kiHTcvJsBffCE6M-1">
                    <mxGeometry x="225" y="5" width="30" height="30" as="geometry"/>
                </mxCell>
                <mxCell id="YL7v0kiHTcvJsBffCE6M-8" style="edgeStyle=none;html=1;" edge="1" parent="YL7v0kiHTcvJsBffCE6M-1" source="YL7v0kiHTcvJsBffCE6M-5" target="YL7v0kiHTcvJsBffCE6M-7">
                    <mxGeometry relative="1" as="geometry"/>
                </mxCell>
                <mxCell id="YL7v0kiHTcvJsBffCE6M-9" style="edgeStyle=none;html=1;" edge="1" parent="YL7v0kiHTcvJsBffCE6M-1" source="YL7v0kiHTcvJsBffCE6M-10" target="YL7v0kiHTcvJsBffCE6M-4">
                    <mxGeometry relative="1" as="geometry"/>
                </mxCell>
                <mxCell id="YL7v0kiHTcvJsBffCE6M-10" value="Data Source" style="ellipse;whiteSpace=wrap;html=1;aspect=fixed;fontSize=8;fillColor=#f5f5f5;fontColor=#333333;strokeColor=#666666;" vertex="1" parent="YL7v0kiHTcvJsBffCE6M-1">
                    <mxGeometry width="40" height="40" as="geometry"/>
                </mxCell>
                <mxCell id="YL7v0kiHTcvJsBffCE6M-11" value="4" style="ellipse;whiteSpace=wrap;html=1;aspect=fixed;fillColor=#f8cecc;strokeColor=#b85450;container=0;" vertex="1" parent="YL7v0kiHTcvJsBffCE6M-1">
                    <mxGeometry x="295" y="5" width="30" height="30" as="geometry"/>
                </mxCell>
                <mxCell id="YL7v0kiHTcvJsBffCE6M-12" style="edgeStyle=none;html=1;" edge="1" parent="YL7v0kiHTcvJsBffCE6M-1" source="YL7v0kiHTcvJsBffCE6M-7" target="YL7v0kiHTcvJsBffCE6M-11">
                    <mxGeometry relative="1" as="geometry"/>
                </mxCell>
                <mxCell id="YL7v0kiHTcvJsBffCE6M-13" value="&lt;div style=&quot;color: rgb(36, 41, 47); background-color: rgb(255, 255, 255); font-family: &amp;quot;MesloLGS NF&amp;quot;, Consolas, &amp;quot;Courier New&amp;quot;, monospace; font-size: 8px; line-height: 19px;&quot;&gt;&lt;b&gt;Vehicle Classification&lt;/b&gt; (mobilnet)&lt;/div&gt;" style="text;html=1;strokeColor=none;fillColor=none;align=center;verticalAlign=middle;whiteSpace=wrap;rounded=0;fontSize=8;" vertex="1" parent="1">
                    <mxGeometry x="120" y="375" width="110" height="50" as="geometry"/>
                </mxCell>
                <mxCell id="YL7v0kiHTcvJsBffCE6M-14" value="&lt;div style=&quot;color: rgb(36, 41, 47); background-color: rgb(255, 255, 255); font-family: &amp;quot;MesloLGS NF&amp;quot;, Consolas, &amp;quot;Courier New&amp;quot;, monospace; font-size: 8px; line-height: 19px;&quot;&gt;&lt;div style=&quot;font-size: 8px;&quot;&gt;&lt;span style=&quot;color: rgb(36, 41, 47); font-size: 8px;&quot;&gt;&lt;b&gt;Detect Damaged Vehicle&lt;/b&gt;&lt;br&gt;(damage_vehicle_yolo5)&lt;/span&gt;&lt;/div&gt;&lt;/div&gt;" style="text;whiteSpace=wrap;html=1;fontSize=8;align=center;" vertex="1" parent="1">
                    <mxGeometry x="260" y="190" width="140" height="50" as="geometry"/>
                </mxCell>
                <mxCell id="YL7v0kiHTcvJsBffCE6M-16" style="edgeStyle=none;html=1;fontSize=8;dashed=1;endArrow=none;endFill=0;strokeWidth=2;" edge="1" parent="1" source="YL7v0kiHTcvJsBffCE6M-4" target="YL7v0kiHTcvJsBffCE6M-13">
                    <mxGeometry relative="1" as="geometry"/>
                </mxCell>
                <mxCell id="YL7v0kiHTcvJsBffCE6M-17" style="edgeStyle=none;html=1;dashed=1;strokeWidth=2;fontSize=8;endArrow=none;endFill=0;entryX=0.565;entryY=1.012;entryDx=0;entryDy=0;entryPerimeter=0;" edge="1" parent="1" source="YL7v0kiHTcvJsBffCE6M-5" target="YL7v0kiHTcvJsBffCE6M-14">
                    <mxGeometry relative="1" as="geometry"/>
                </mxCell>
                <mxCell id="YL7v0kiHTcvJsBffCE6M-18" value="&lt;div style=&quot;color: rgb(36, 41, 47); background-color: rgb(255, 255, 255); font-family: &amp;quot;MesloLGS NF&amp;quot;, Consolas, &amp;quot;Courier New&amp;quot;, monospace; font-size: 8px; line-height: 19px;&quot;&gt;&lt;div style=&quot;font-size: 8px;&quot;&gt;&lt;span style=&quot;color: rgb(36, 41, 47); font-size: 8px;&quot;&gt;&lt;b&gt;Detect Vehicle License Plate&lt;/b&gt;&lt;br&gt;(yolos-small-finetuned-license-plate-detection)&lt;/span&gt;&lt;/div&gt;&lt;/div&gt;" style="text;whiteSpace=wrap;html=1;fontSize=8;align=center;" vertex="1" parent="1">
                    <mxGeometry x="240" y="375" width="250" height="50" as="geometry"/>
                </mxCell>
                <mxCell id="YL7v0kiHTcvJsBffCE6M-19" style="edgeStyle=none;html=1;entryX=0.37;entryY=0.013;entryDx=0;entryDy=0;entryPerimeter=0;dashed=1;strokeWidth=2;fontSize=8;endArrow=none;endFill=0;" edge="1" parent="1" source="YL7v0kiHTcvJsBffCE6M-7" target="YL7v0kiHTcvJsBffCE6M-18">
                    <mxGeometry relative="1" as="geometry"/>
                </mxCell>
                <mxCell id="YL7v0kiHTcvJsBffCE6M-20" value="&lt;div style=&quot;color: rgb(36, 41, 47); background-color: rgb(255, 255, 255); font-family: &amp;quot;MesloLGS NF&amp;quot;, Consolas, &amp;quot;Courier New&amp;quot;, monospace; font-size: 8px; line-height: 19px;&quot;&gt;&lt;div style=&quot;font-size: 8px;&quot;&gt;&lt;span style=&quot;color: rgb(36, 41, 47); font-size: 8px;&quot;&gt;&lt;b&gt;Extrac License Plate Number&lt;/b&gt;&lt;br&gt;(trocr-small-printed)&lt;/span&gt;&lt;/div&gt;&lt;/div&gt;" style="text;whiteSpace=wrap;html=1;fontSize=8;align=center;" vertex="1" parent="1">
                    <mxGeometry x="425" y="190" width="140" height="50" as="geometry"/>
                </mxCell>
                <mxCell id="YL7v0kiHTcvJsBffCE6M-21" style="edgeStyle=none;html=1;dashed=1;strokeWidth=2;fontSize=8;endArrow=none;endFill=0;" edge="1" parent="1" source="YL7v0kiHTcvJsBffCE6M-11" target="YL7v0kiHTcvJsBffCE6M-20">
                    <mxGeometry relative="1" as="geometry"/>
                </mxCell>
            </root>
        </mxGraphModel>
    </diagram>
</mxfile>